<svg xmlns="http://www.w3.org/2000/svg" xmlns:xlink="http://www.w3.org/1999/xlink" width="40" zoomAndPan="magnify" viewBox="0 0 30 30.000001" height="40" preserveAspectRatio="xMidYMid meet" version="1.0"><defs><clipPath id="3dd749052f"><path d="M 1.101562 0.617188 L 28.679688 0.617188 L 28.679688 28.199219 L 1.101562 28.199219 Z M 1.101562 0.617188 " clip-rule="nonzero"/></clipPath></defs><g clip-path="url(#3dd749052f)"><path fill="#273884" d="M 14.964844 0.585938 C 14.660156 0.589844 14.367188 0.652344 14.089844 0.773438 C 13.808594 0.894531 13.5625 1.0625 13.351562 1.28125 C 13.140625 1.5 12.976562 1.75 12.863281 2.03125 C 12.75 2.316406 12.699219 2.609375 12.703125 2.914062 L 12.703125 12.101562 L 3.511719 12.101562 C 3.207031 12.097656 2.910156 12.152344 2.625 12.269531 C 2.339844 12.382812 2.085938 12.546875 1.867188 12.765625 C 1.648438 12.980469 1.480469 13.230469 1.359375 13.511719 C 1.242188 13.796875 1.183594 14.09375 1.183594 14.398438 C 1.183594 14.707031 1.242188 15.003906 1.359375 15.285156 C 1.480469 15.570312 1.648438 15.820312 1.867188 16.035156 C 2.085938 16.253906 2.339844 16.417969 2.625 16.53125 C 2.910156 16.648438 3.207031 16.703125 3.511719 16.699219 L 12.703125 16.699219 L 12.703125 25.886719 C 12.699219 26.195312 12.753906 26.488281 12.867188 26.773438 C 12.980469 27.058594 13.148438 27.3125 13.363281 27.53125 C 13.578125 27.75 13.828125 27.917969 14.113281 28.039062 C 14.394531 28.15625 14.691406 28.214844 15 28.214844 C 15.304688 28.214844 15.601562 28.15625 15.886719 28.039062 C 16.167969 27.917969 16.417969 27.75 16.636719 27.53125 C 16.851562 27.3125 17.015625 27.058594 17.128906 26.773438 C 17.246094 26.488281 17.300781 26.195312 17.296875 25.886719 L 17.296875 16.699219 L 26.484375 16.699219 C 26.792969 16.703125 27.089844 16.648438 27.375 16.53125 C 27.660156 16.417969 27.910156 16.253906 28.128906 16.035156 C 28.347656 15.820312 28.519531 15.570312 28.636719 15.285156 C 28.753906 15.003906 28.816406 14.707031 28.816406 14.398438 C 28.816406 14.09375 28.753906 13.796875 28.636719 13.511719 C 28.519531 13.230469 28.347656 12.980469 28.128906 12.765625 C 27.910156 12.546875 27.660156 12.382812 27.375 12.269531 C 27.089844 12.152344 26.792969 12.097656 26.484375 12.101562 L 17.296875 12.101562 L 17.296875 2.914062 C 17.300781 2.605469 17.242188 2.304688 17.128906 2.015625 C 17.011719 1.730469 16.84375 1.476562 16.621094 1.257812 C 16.402344 1.039062 16.148438 0.871094 15.863281 0.753906 C 15.574219 0.636719 15.277344 0.582031 14.964844 0.585938 Z M 14.964844 0.585938 " fill-opacity="1" fill-rule="nonzero"/></g></svg>