<svg xmlns="http://www.w3.org/2000/svg" xmlns:xlink="http://www.w3.org/1999/xlink" width="40" zoomAndPan="magnify" viewBox="0 0 30 30.000001" height="40" preserveAspectRatio="xMidYMid meet" version="1.0"><defs><clipPath id="dbeefbfaa6"><path d="M 0.484375 1.035156 L 29.515625 1.035156 L 29.515625 27.890625 L 0.484375 27.890625 Z M 0.484375 1.035156 " clip-rule="nonzero"/></clipPath></defs><g clip-path="url(#dbeefbfaa6)"><path fill="#273884" d="M 1.089844 15.679688 L 4.65625 15.679688 C 4.980469 15.679688 5.246094 15.945312 5.246094 16.269531 L 5.246094 27.398438 C 5.246094 27.722656 4.980469 27.988281 4.65625 27.988281 L 1.089844 27.988281 C 0.761719 27.988281 0.5 27.722656 0.5 27.398438 L 0.5 16.269531 C 0.5 15.945312 0.761719 15.679688 1.089844 15.679688 Z M 2.871094 9.019531 C 3.390625 9.019531 3.863281 9.222656 4.210938 9.554688 L 9.050781 6.882812 C 9.023438 6.757812 9.011719 6.632812 9.011719 6.5 C 9.011719 5.425781 9.882812 4.554688 10.957031 4.554688 C 11.972656 4.554688 12.808594 5.335938 12.894531 6.332031 L 17.359375 7.328125 C 17.695312 6.746094 18.324219 6.355469 19.042969 6.355469 C 19.507812 6.355469 19.933594 6.519531 20.269531 6.792969 L 25.253906 3.507812 C 25.207031 3.339844 25.183594 3.160156 25.183594 2.976562 C 25.183594 1.902344 26.054688 1.03125 27.128906 1.03125 C 28.203125 1.03125 29.074219 1.902344 29.074219 2.976562 C 29.074219 4.050781 28.203125 4.921875 27.128906 4.921875 C 26.664062 4.921875 26.234375 4.761719 25.902344 4.488281 L 20.914062 7.773438 C 20.960938 7.941406 20.988281 8.117188 20.988281 8.300781 C 20.988281 9.378906 20.117188 10.246094 19.042969 10.246094 C 18.023438 10.246094 17.191406 9.46875 17.105469 8.472656 L 12.640625 7.476562 C 12.304688 8.058594 11.675781 8.445312 10.957031 8.445312 C 10.4375 8.445312 9.96875 8.242188 9.617188 7.914062 L 4.78125 10.582031 C 4.804688 10.707031 4.816406 10.835938 4.816406 10.964844 C 4.816406 12.039062 3.945312 12.910156 2.871094 12.910156 C 1.796875 12.910156 0.925781 12.039062 0.925781 10.964844 C 0.925781 9.890625 1.796875 9.019531 2.871094 9.019531 Z M 25.34375 7.695312 C 25.019531 7.695312 24.753906 7.957031 24.753906 8.285156 L 24.753906 27.398438 C 24.753906 27.722656 25.019531 27.988281 25.34375 27.988281 L 28.910156 27.988281 C 29.238281 27.988281 29.5 27.722656 29.5 27.398438 L 29.5 8.285156 C 29.5 7.957031 29.238281 7.695312 28.910156 7.695312 Z M 17.257812 13.019531 C 18.449219 13.019531 19.636719 13.019531 20.828125 13.019531 C 21.152344 13.019531 21.417969 13.285156 21.417969 13.609375 C 21.417969 18.203125 21.417969 22.800781 21.417969 27.398438 C 21.417969 27.722656 21.152344 27.988281 20.828125 27.988281 C 19.636719 27.988281 18.449219 27.988281 17.257812 27.988281 C 16.933594 27.988281 16.667969 27.722656 16.667969 27.398438 C 16.667969 22.800781 16.667969 18.203125 16.667969 13.609375 C 16.667969 13.285156 16.933594 13.019531 17.257812 13.019531 Z M 9.171875 11.21875 C 8.847656 11.21875 8.582031 11.484375 8.582031 11.808594 C 8.582031 17.003906 8.582031 22.199219 8.582031 27.398438 C 8.582031 27.722656 8.847656 27.988281 9.171875 27.988281 C 10.363281 27.988281 11.550781 27.988281 12.742188 27.988281 C 13.066406 27.988281 13.332031 27.722656 13.332031 27.398438 C 13.332031 22.199219 13.332031 17.003906 13.332031 11.808594 C 13.332031 11.484375 13.066406 11.21875 12.742188 11.21875 C 11.550781 11.21875 10.363281 11.21875 9.171875 11.21875 Z M 9.171875 11.21875 " fill-opacity="1" fill-rule="evenodd"/></g></svg>