<svg xmlns="http://www.w3.org/2000/svg" xmlns:xlink="http://www.w3.org/1999/xlink" width="40" zoomAndPan="magnify" viewBox="0 0 30 30.000001" height="40" preserveAspectRatio="xMidYMid meet" version="1.0"><defs><clipPath id="a9a625ca1f"><path d="M 0.957031 2.140625 L 29.265625 2.140625 L 29.265625 26.820312 L 0.957031 26.820312 Z M 0.957031 2.140625 " clip-rule="nonzero"/></clipPath></defs><g clip-path="url(#a9a625ca1f)"><path fill="#273884" d="M 29.035156 18.164062 L 29.035156 22.875 C 29.035156 23.132812 29.011719 23.386719 28.960938 23.640625 C 28.910156 23.890625 28.835938 24.136719 28.738281 24.375 C 28.636719 24.613281 28.519531 24.839844 28.375 25.054688 C 28.230469 25.265625 28.070312 25.464844 27.886719 25.648438 C 27.703125 25.828125 27.507812 25.992188 27.292969 26.136719 C 27.078125 26.277344 26.851562 26.398438 26.613281 26.496094 C 26.375 26.597656 26.132812 26.671875 25.878906 26.722656 C 25.625 26.773438 25.371094 26.796875 25.113281 26.796875 L 4.878906 26.796875 C 4.625 26.796875 4.367188 26.773438 4.117188 26.722656 C 3.863281 26.671875 3.617188 26.597656 3.378906 26.496094 C 3.140625 26.398438 2.917969 26.277344 2.703125 26.136719 C 2.488281 25.992188 2.289062 25.828125 2.109375 25.648438 C 1.925781 25.464844 1.761719 25.265625 1.621094 25.054688 C 1.476562 24.839844 1.355469 24.613281 1.257812 24.375 C 1.160156 24.136719 1.085938 23.890625 1.035156 23.640625 C 0.984375 23.386719 0.957031 23.132812 0.957031 22.875 L 0.957031 18.164062 C 0.957031 18.003906 0.988281 17.847656 1.050781 17.699219 C 1.109375 17.550781 1.199219 17.421875 1.3125 17.308594 C 1.425781 17.195312 1.554688 17.105469 1.703125 17.046875 C 1.851562 16.984375 2.007812 16.953125 2.167969 16.953125 C 2.328125 16.953125 2.484375 16.984375 2.632812 17.046875 C 2.78125 17.105469 2.910156 17.195312 3.023438 17.308594 C 3.136719 17.421875 3.226562 17.550781 3.285156 17.699219 C 3.347656 17.847656 3.378906 18.003906 3.378906 18.164062 L 3.378906 22.664062 C 3.378906 22.890625 3.421875 23.109375 3.507812 23.320312 C 3.597656 23.527344 3.71875 23.714844 3.882812 23.875 C 4.042969 24.035156 4.226562 24.160156 4.4375 24.246094 C 4.648438 24.332031 4.867188 24.375 5.09375 24.378906 L 24.902344 24.378906 C 25.128906 24.375 25.347656 24.332031 25.558594 24.246094 C 25.765625 24.160156 25.953125 24.035156 26.113281 23.875 C 26.273438 23.714844 26.398438 23.527344 26.484375 23.320312 C 26.574219 23.109375 26.617188 22.890625 26.617188 22.664062 L 26.617188 18.164062 C 26.617188 18.003906 26.648438 17.847656 26.707031 17.699219 C 26.769531 17.554688 26.859375 17.421875 26.972656 17.308594 C 27.085938 17.195312 27.214844 17.109375 27.363281 17.046875 C 27.511719 16.984375 27.667969 16.953125 27.828125 16.953125 C 27.988281 16.953125 28.140625 16.984375 28.289062 17.046875 C 28.4375 17.109375 28.570312 17.195312 28.683594 17.308594 C 28.796875 17.421875 28.882812 17.554688 28.945312 17.699219 C 29.007812 17.847656 29.035156 18.003906 29.035156 18.164062 Z M 11.101562 9.550781 L 13.402344 7.246094 C 13.480469 7.171875 13.566406 7.152344 13.667969 7.195312 C 13.765625 7.234375 13.816406 7.308594 13.816406 7.417969 L 13.816406 18.8125 C 13.816406 18.972656 13.847656 19.128906 13.910156 19.277344 C 13.972656 19.425781 14.058594 19.554688 14.171875 19.667969 C 14.285156 19.78125 14.417969 19.871094 14.5625 19.929688 C 14.710938 19.992188 14.867188 20.023438 15.027344 20.023438 C 15.1875 20.023438 15.34375 19.992188 15.492188 19.929688 C 15.640625 19.871094 15.769531 19.78125 15.882812 19.667969 C 15.996094 19.554688 16.085938 19.425781 16.144531 19.277344 C 16.207031 19.128906 16.238281 18.972656 16.238281 18.8125 L 16.238281 7.476562 C 16.238281 7.371094 16.289062 7.296875 16.386719 7.253906 C 16.488281 7.214844 16.574219 7.230469 16.652344 7.308594 L 18.894531 9.550781 C 19.007812 9.660156 19.140625 9.746094 19.289062 9.804688 C 19.4375 9.863281 19.589844 9.894531 19.75 9.894531 C 19.910156 9.894531 20.0625 9.863281 20.210938 9.804688 C 20.359375 9.746094 20.488281 9.660156 20.605469 9.550781 C 20.71875 9.4375 20.804688 9.304688 20.867188 9.15625 C 20.929688 9.007812 20.960938 8.855469 20.960938 8.695312 C 20.960938 8.535156 20.929688 8.378906 20.867188 8.230469 C 20.804688 8.082031 20.71875 7.953125 20.605469 7.839844 L 14.996094 2.230469 L 9.390625 7.839844 C 9.277344 7.953125 9.1875 8.082031 9.128906 8.230469 C 9.066406 8.378906 9.035156 8.535156 9.035156 8.695312 C 9.035156 8.855469 9.066406 9.007812 9.128906 9.15625 C 9.1875 9.304688 9.277344 9.4375 9.390625 9.550781 C 9.503906 9.660156 9.636719 9.746094 9.785156 9.804688 C 9.933594 9.863281 10.085938 9.894531 10.246094 9.894531 C 10.402344 9.894531 10.558594 9.863281 10.707031 9.804688 C 10.855469 9.746094 10.984375 9.660156 11.101562 9.550781 Z M 11.101562 9.550781 " fill-opacity="1" fill-rule="nonzero"/></g></svg>