<svg xmlns="http://www.w3.org/2000/svg" xmlns:xlink="http://www.w3.org/1999/xlink" width="40" zoomAndPan="magnify" viewBox="0 0 30 30.000001" height="40" preserveAspectRatio="xMidYMid meet" version="1.0"><defs><clipPath id="4f26ee1ac3"><path d="M 0.484375 0 L 29.515625 0 L 29.515625 29.03125 L 0.484375 29.03125 Z M 0.484375 0 " clip-rule="nonzero"/></clipPath></defs><g clip-path="url(#4f26ee1ac3)"><path fill="#ffffff" d="M 15 0 C 6.996094 0 0.484375 6.511719 0.484375 14.515625 C 0.484375 22.519531 6.996094 29.03125 15 29.03125 C 23.003906 29.03125 29.515625 22.519531 29.515625 14.515625 C 29.515625 6.511719 23.003906 0 15 0 Z M 24.183594 23.101562 C 22.292969 19.867188 18.820312 17.839844 15 17.839844 C 11.179688 17.839844 7.710938 19.867188 5.816406 23.101562 C 3.710938 20.851562 2.417969 17.832031 2.417969 14.515625 C 2.417969 7.578125 8.0625 1.933594 15 1.933594 C 21.9375 1.933594 27.582031 7.578125 27.582031 14.515625 C 27.582031 17.832031 26.289062 20.851562 24.183594 23.101562 Z M 24.183594 23.101562 " fill-opacity="1" fill-rule="nonzero"/></g><path fill="#ffffff" d="M 15 4.292969 C 11.738281 4.292969 9.082031 6.945312 9.082031 10.207031 C 9.082031 13.472656 11.738281 16.125 15 16.125 C 18.261719 16.125 20.917969 13.472656 20.917969 10.207031 C 20.917969 6.945312 18.261719 4.292969 15 4.292969 Z M 15 4.292969 " fill-opacity="1" fill-rule="nonzero"/></svg>