<svg xmlns="http://www.w3.org/2000/svg" xmlns:xlink="http://www.w3.org/1999/xlink" width="40" zoomAndPan="magnify" viewBox="0 0 30 30.000001" height="40" preserveAspectRatio="xMidYMid meet" version="1.0"><defs><clipPath id="4012409dc0"><path d="M 0.484375 0 L 29.515625 0 L 29.515625 29.03125 L 0.484375 29.03125 Z M 0.484375 0 " clip-rule="nonzero"/></clipPath><clipPath id="2b45cfd825"><path d="M 3.386719 0 L 26.613281 0 L 26.613281 29 L 3.386719 29 Z M 3.386719 0 " clip-rule="nonzero"/></clipPath><clipPath id="93de4fa9ca"><path d="M 18 0 L 26.613281 0 L 26.613281 8 L 18 8 Z M 18 0 " clip-rule="nonzero"/></clipPath></defs><g clip-path="url(#4012409dc0)"><path fill="#ffffff" d="M 0.484375 0 L 29.515625 0 L 29.515625 29.03125 L 0.484375 29.03125 Z M 0.484375 0 " fill-opacity="1" fill-rule="nonzero"/><path fill="#ffffff" d="M 0.484375 0 L 29.515625 0 L 29.515625 29.03125 L 0.484375 29.03125 Z M 0.484375 0 " fill-opacity="1" fill-rule="nonzero"/><path fill="#ffffff" d="M 15 0 C 6.996094 0 0.484375 6.511719 0.484375 14.515625 C 0.484375 22.519531 6.996094 29.03125 15 29.03125 C 23.003906 29.03125 29.515625 22.519531 29.515625 14.515625 C 29.515625 6.511719 23.003906 0 15 0 Z M 24.183594 23.101562 C 22.292969 19.867188 18.820312 17.839844 15 17.839844 C 11.179688 17.839844 7.710938 19.867188 5.816406 23.101562 C 3.710938 20.851562 2.417969 17.832031 2.417969 14.515625 C 2.417969 7.578125 8.0625 1.933594 15 1.933594 C 21.9375 1.933594 27.582031 7.578125 27.582031 14.515625 C 27.582031 17.832031 26.289062 20.851562 24.183594 23.101562 Z M 24.183594 23.101562 " fill-opacity="1" fill-rule="nonzero"/></g><path fill="#ffffff" d="M 15 4.292969 C 11.738281 4.292969 9.082031 6.945312 9.082031 10.207031 C 9.082031 13.472656 11.738281 16.125 15 16.125 C 18.261719 16.125 20.917969 13.472656 20.917969 10.207031 C 20.917969 6.945312 18.261719 4.292969 15 4.292969 Z M 15 4.292969 " fill-opacity="1" fill-rule="nonzero"/><g clip-path="url(#2b45cfd825)"><path fill="#010101" d="M 23.394531 28.964844 L 3.921875 28.964844 C 3.78125 28.964844 3.660156 28.917969 3.558594 28.816406 C 3.457031 28.71875 3.40625 28.597656 3.40625 28.457031 L 3.40625 0.5625 C 3.40625 0.425781 3.457031 0.304688 3.558594 0.203125 C 3.660156 0.105469 3.78125 0.0546875 3.921875 0.0546875 L 18.8125 0.0546875 C 18.949219 0.0546875 19.066406 0.101562 19.167969 0.191406 L 26.417969 7.042969 C 26.523438 7.140625 26.578125 7.261719 26.578125 7.40625 L 26.578125 25.820312 C 26.578125 26.234375 26.496094 26.636719 26.335938 27.023438 C 26.171875 27.40625 25.945312 27.746094 25.644531 28.042969 C 25.347656 28.335938 25.003906 28.566406 24.613281 28.726562 C 24.222656 28.886719 23.816406 28.964844 23.394531 28.964844 Z M 4.4375 27.949219 L 23.394531 27.949219 C 23.679688 27.949219 23.953125 27.894531 24.21875 27.785156 C 24.480469 27.675781 24.714844 27.523438 24.917969 27.324219 C 25.117188 27.125 25.273438 26.894531 25.382812 26.632812 C 25.492188 26.371094 25.546875 26.101562 25.546875 25.820312 L 25.546875 7.648438 L 18.605469 1.074219 L 4.4375 1.074219 Z M 4.4375 27.949219 " fill-opacity="1" fill-rule="nonzero"/></g><g clip-path="url(#93de4fa9ca)"><path fill="#010101" d="M 26.0625 7.9375 L 21.152344 7.9375 C 20.777344 7.9375 20.414062 7.867188 20.066406 7.722656 C 19.71875 7.582031 19.410156 7.378906 19.144531 7.113281 C 18.878906 6.851562 18.671875 6.546875 18.527344 6.203125 C 18.382812 5.859375 18.3125 5.503906 18.3125 5.128906 L 18.3125 0.554688 C 18.3125 0.328125 18.417969 0.175781 18.625 0.0859375 C 18.832031 0 19.019531 0.03125 19.183594 0.183594 L 26.417969 7.042969 C 26.582031 7.199219 26.625 7.386719 26.539062 7.597656 C 26.453125 7.808594 26.292969 7.914062 26.0625 7.917969 Z M 19.324219 1.753906 L 19.324219 5.128906 C 19.328125 5.367188 19.375 5.597656 19.464844 5.816406 C 19.558594 6.039062 19.691406 6.230469 19.863281 6.398438 C 20.035156 6.566406 20.234375 6.695312 20.457031 6.785156 C 20.679688 6.875 20.914062 6.921875 21.152344 6.921875 L 24.800781 6.921875 Z M 19.324219 1.753906 " fill-opacity="1" fill-rule="nonzero"/></g><path fill="#010101" d="M 9.984375 16.59375 L 9.953125 16.59375 C 9.660156 16.601562 9.410156 16.5 9.203125 16.296875 C 8.960938 16.027344 8.859375 15.714844 8.898438 15.359375 C 8.976562 14.816406 9.253906 14.398438 9.722656 14.105469 C 10.714844 13.496094 11.777344 13.0625 12.914062 12.796875 C 13.613281 11.425781 14.140625 9.988281 14.488281 8.492188 C 14.128906 7.6875 13.816406 6.867188 13.558594 6.023438 C 13.421875 5.664062 13.367188 5.289062 13.394531 4.902344 C 13.40625 4.613281 13.511719 4.363281 13.703125 4.148438 C 13.898438 3.933594 14.136719 3.800781 14.425781 3.753906 C 14.710938 3.703125 14.980469 3.75 15.238281 3.890625 C 15.492188 4.03125 15.671875 4.234375 15.78125 4.5 C 15.988281 4.917969 16.0625 5.359375 16.003906 5.820312 C 15.925781 6.679688 15.785156 7.527344 15.585938 8.363281 C 16.15625 9.691406 16.980469 10.835938 18.0625 11.800781 C 18.746094 11.695312 19.433594 11.648438 20.125 11.667969 C 20.835938 11.785156 21.011719 12.175781 21.054688 12.410156 C 21.097656 12.644531 21.046875 12.855469 20.90625 13.046875 C 20.742188 13.269531 20.519531 13.402344 20.242188 13.449219 C 19.335938 13.570312 18.507812 13.375 17.753906 12.863281 C 16.359375 13.054688 14.972656 13.316406 13.605469 13.652344 C 13.277344 14.246094 12.878906 14.789062 12.398438 15.273438 C 11.277344 16.355469 10.472656 16.59375 9.984375 16.59375 Z M 9.9375 15.578125 C 10.066406 15.578125 10.628906 15.578125 11.6875 14.5625 C 11.824219 14.429688 11.953125 14.289062 12.070312 14.140625 C 11.453125 14.316406 10.878906 14.578125 10.339844 14.921875 C 9.933594 15.21875 9.890625 15.457031 9.9375 15.574219 Z M 15.191406 9.863281 C 14.925781 10.757812 14.601562 11.628906 14.222656 12.476562 C 15.070312 12.285156 15.9375 12.125 16.734375 11.996094 C 16.128906 11.347656 15.613281 10.632812 15.191406 9.859375 Z M 14.597656 4.78125 C 14.496094 4.84375 14.441406 4.9375 14.4375 5.058594 C 14.433594 5.300781 14.472656 5.535156 14.5625 5.761719 C 14.65625 6.050781 14.757812 6.359375 14.875 6.6875 C 14.921875 6.367188 14.964844 6.050781 14.988281 5.75 C 15.027344 5.484375 14.996094 5.230469 14.886719 4.984375 C 14.832031 4.855469 14.734375 4.785156 14.597656 4.765625 Z M 14.597656 4.78125 " fill-opacity="1" fill-rule="nonzero"/><path fill="#010101" d="M 10.648438 24.730469 C 10.570312 24.75 10.496094 24.761719 10.417969 24.773438 C 10.3125 24.777344 10.210938 24.777344 10.109375 24.773438 C 10.015625 24.78125 9.925781 24.78125 9.835938 24.773438 C 9.761719 24.761719 9.699219 24.734375 9.640625 24.691406 C 9.582031 24.648438 9.539062 24.59375 9.515625 24.527344 C 9.484375 24.4375 9.472656 24.34375 9.472656 24.246094 L 9.472656 21.132812 C 9.46875 21.046875 9.496094 20.976562 9.550781 20.914062 C 9.613281 20.855469 9.683594 20.816406 9.761719 20.789062 C 9.929688 20.734375 10.101562 20.695312 10.277344 20.679688 C 10.46875 20.652344 10.660156 20.640625 10.855469 20.636719 C 11.371094 20.605469 11.839844 20.734375 12.265625 21.03125 C 12.609375 21.300781 12.769531 21.652344 12.753906 22.085938 C 12.757812 22.289062 12.722656 22.484375 12.652344 22.671875 C 12.582031 22.84375 12.480469 22.996094 12.34375 23.125 C 12.191406 23.253906 12.019531 23.351562 11.828125 23.414062 C 11.59375 23.484375 11.351562 23.519531 11.105469 23.515625 L 10.648438 23.515625 Z M 11 22.609375 C 11.15625 22.621094 11.300781 22.578125 11.425781 22.484375 C 11.53125 22.375 11.582031 22.242188 11.582031 22.09375 C 11.582031 21.941406 11.53125 21.808594 11.425781 21.699219 C 11.289062 21.597656 11.136719 21.554688 10.96875 21.566406 L 10.648438 21.566406 L 10.648438 22.585938 Z M 11 22.609375 " fill-opacity="1" fill-rule="nonzero"/><path fill="#010101" d="M 14.90625 24.863281 L 14.339844 24.863281 L 14.027344 24.8125 C 13.925781 24.792969 13.828125 24.765625 13.734375 24.730469 C 13.492188 24.660156 13.371094 24.496094 13.367188 24.246094 L 13.367188 21.132812 C 13.363281 21.046875 13.386719 20.976562 13.445312 20.914062 C 13.503906 20.855469 13.574219 20.8125 13.65625 20.789062 C 13.855469 20.726562 14.054688 20.6875 14.261719 20.667969 C 14.480469 20.667969 14.671875 20.636719 14.839844 20.636719 C 15.164062 20.636719 15.476562 20.679688 15.789062 20.765625 C 16.058594 20.84375 16.300781 20.972656 16.515625 21.152344 C 16.726562 21.335938 16.882812 21.554688 16.988281 21.8125 C 17.109375 22.113281 17.164062 22.425781 17.15625 22.746094 C 17.164062 23.066406 17.109375 23.375 16.992188 23.671875 C 16.886719 23.929688 16.730469 24.148438 16.519531 24.328125 C 16.3125 24.515625 16.074219 24.644531 15.808594 24.726562 C 15.515625 24.820312 15.214844 24.863281 14.90625 24.863281 Z M 14.53125 23.898438 L 14.710938 23.921875 L 14.914062 23.921875 C 15.054688 23.925781 15.195312 23.902344 15.328125 23.855469 C 15.457031 23.8125 15.566406 23.746094 15.660156 23.652344 C 15.757812 23.546875 15.832031 23.429688 15.875 23.292969 C 15.925781 23.125 15.949219 22.957031 15.949219 22.785156 C 15.972656 22.449219 15.878906 22.152344 15.667969 21.886719 C 15.464844 21.675781 15.214844 21.574219 14.917969 21.589844 L 14.53125 21.589844 Z M 14.53125 23.898438 " fill-opacity="1" fill-rule="nonzero"/><path fill="#010101" d="M 20.675781 20.769531 C 20.714844 20.832031 20.742188 20.894531 20.761719 20.964844 C 20.785156 21.046875 20.796875 21.132812 20.796875 21.21875 C 20.8125 21.355469 20.773438 21.476562 20.683594 21.582031 C 20.601562 21.664062 20.503906 21.699219 20.386719 21.695312 L 18.980469 21.695312 L 18.980469 22.441406 L 20.449219 22.441406 C 20.488281 22.5 20.519531 22.5625 20.542969 22.632812 C 20.5625 22.714844 20.578125 22.800781 20.578125 22.886719 C 20.589844 23.019531 20.554688 23.136719 20.464844 23.242188 C 20.382812 23.320312 20.285156 23.359375 20.171875 23.351562 L 18.996094 23.351562 L 18.996094 24.746094 C 18.921875 24.765625 18.84375 24.777344 18.765625 24.785156 C 18.660156 24.792969 18.558594 24.792969 18.457031 24.785156 C 18.363281 24.796875 18.273438 24.796875 18.183594 24.785156 C 18.109375 24.773438 18.046875 24.746094 17.988281 24.707031 C 17.929688 24.664062 17.890625 24.609375 17.863281 24.542969 C 17.835938 24.453125 17.824219 24.359375 17.828125 24.261719 L 17.828125 21.371094 C 17.816406 21.199219 17.871094 21.050781 17.996094 20.929688 C 18.121094 20.808594 18.269531 20.753906 18.445312 20.769531 Z M 20.675781 20.769531 " fill-opacity="1" fill-rule="nonzero"/></svg>