<svg xmlns="http://www.w3.org/2000/svg" xmlns:xlink="http://www.w3.org/1999/xlink" width="40" zoomAndPan="magnify" viewBox="0 0 30 30.000001" height="40" preserveAspectRatio="xMidYMid meet" version="1.0"><defs><clipPath id="2ed4a0ff99"><path d="M 0.484375 0 L 29.515625 0 L 29.515625 29.03125 L 0.484375 29.03125 Z M 0.484375 0 " clip-rule="nonzero"/></clipPath><clipPath id="cc5ebee7db"><path d="M 3.386719 0 L 26.613281 0 L 26.613281 29 L 3.386719 29 Z M 3.386719 0 " clip-rule="nonzero"/></clipPath><clipPath id="0a5adac7b5"><path d="M 18 0 L 26.613281 0 L 26.613281 8 L 18 8 Z M 18 0 " clip-rule="nonzero"/></clipPath></defs><g clip-path="url(#2ed4a0ff99)"><path fill="#ffffff" d="M 15 0 C 6.996094 0 0.484375 6.511719 0.484375 14.515625 C 0.484375 22.519531 6.996094 29.03125 15 29.03125 C 23.003906 29.03125 29.515625 22.519531 29.515625 14.515625 C 29.515625 6.511719 23.003906 0 15 0 Z M 24.183594 23.101562 C 22.292969 19.867188 18.820312 17.839844 15 17.839844 C 11.179688 17.839844 7.710938 19.867188 5.816406 23.101562 C 3.710938 20.851562 2.417969 17.832031 2.417969 14.515625 C 2.417969 7.578125 8.0625 1.933594 15 1.933594 C 21.9375 1.933594 27.582031 7.578125 27.582031 14.515625 C 27.582031 17.832031 26.289062 20.851562 24.183594 23.101562 Z M 24.183594 23.101562 " fill-opacity="1" fill-rule="nonzero"/></g><path fill="#ffffff" d="M 15 4.292969 C 11.738281 4.292969 9.082031 6.945312 9.082031 10.207031 C 9.082031 13.472656 11.738281 16.125 15 16.125 C 18.261719 16.125 20.917969 13.472656 20.917969 10.207031 C 20.917969 6.945312 18.261719 4.292969 15 4.292969 Z M 15 4.292969 " fill-opacity="1" fill-rule="nonzero"/><g clip-path="url(#cc5ebee7db)"><path fill="#dd0000" d="M 23.140625 28.964844 L 3.914062 28.964844 C 3.777344 28.964844 3.65625 28.917969 3.554688 28.816406 C 3.457031 28.71875 3.40625 28.597656 3.40625 28.457031 L 3.40625 0.5625 C 3.40625 0.425781 3.457031 0.304688 3.554688 0.203125 C 3.65625 0.105469 3.777344 0.0546875 3.914062 0.0546875 L 18.613281 0.0546875 C 18.75 0.0546875 18.867188 0.101562 18.964844 0.191406 L 26.125 7.042969 C 26.230469 7.140625 26.28125 7.261719 26.28125 7.40625 L 26.28125 25.820312 C 26.28125 26.234375 26.203125 26.636719 26.042969 27.023438 C 25.882812 27.40625 25.65625 27.746094 25.363281 28.042969 C 25.066406 28.335938 24.726562 28.566406 24.34375 28.726562 C 23.957031 28.886719 23.558594 28.964844 23.140625 28.964844 Z M 4.425781 27.949219 L 23.140625 27.949219 C 23.421875 27.949219 23.695312 27.894531 23.953125 27.785156 C 24.214844 27.675781 24.445312 27.523438 24.644531 27.324219 C 24.84375 27.125 24.996094 26.894531 25.105469 26.632812 C 25.210938 26.371094 25.265625 26.101562 25.265625 25.820312 L 25.265625 7.648438 L 18.410156 1.074219 L 4.425781 1.074219 Z M 4.425781 27.949219 " fill-opacity="1" fill-rule="nonzero"/></g><g clip-path="url(#0a5adac7b5)"><path fill="#dd0000" d="M 25.773438 7.9375 L 20.929688 7.9375 C 20.554688 7.9375 20.199219 7.867188 19.855469 7.722656 C 19.511719 7.582031 19.207031 7.378906 18.945312 7.113281 C 18.679688 6.851562 18.476562 6.546875 18.335938 6.203125 C 18.191406 5.859375 18.121094 5.503906 18.121094 5.128906 L 18.121094 0.554688 C 18.121094 0.328125 18.226562 0.175781 18.433594 0.0859375 C 18.636719 0 18.820312 0.03125 18.980469 0.183594 L 26.125 7.042969 C 26.289062 7.199219 26.328125 7.386719 26.242188 7.597656 C 26.160156 7.808594 26.003906 7.914062 25.773438 7.917969 Z M 19.125 1.753906 L 19.125 5.128906 C 19.125 5.367188 19.171875 5.597656 19.261719 5.816406 C 19.355469 6.039062 19.484375 6.230469 19.65625 6.398438 C 19.824219 6.566406 20.019531 6.695312 20.238281 6.785156 C 20.460938 6.875 20.691406 6.921875 20.929688 6.921875 L 24.527344 6.921875 Z M 19.125 1.753906 " fill-opacity="1" fill-rule="nonzero"/></g><path fill="#dd0000" d="M 9.898438 16.59375 L 9.871094 16.59375 C 9.578125 16.601562 9.332031 16.5 9.128906 16.296875 C 8.890625 16.027344 8.789062 15.714844 8.828125 15.359375 C 8.90625 14.816406 9.179688 14.398438 9.640625 14.105469 C 10.621094 13.496094 11.671875 13.0625 12.792969 12.796875 C 13.484375 11.425781 14.003906 9.988281 14.347656 8.492188 C 13.992188 7.6875 13.683594 6.867188 13.429688 6.023438 C 13.292969 5.664062 13.238281 5.289062 13.265625 4.902344 C 13.28125 4.613281 13.382812 4.363281 13.574219 4.148438 C 13.765625 3.933594 14 3.800781 14.285156 3.753906 C 14.566406 3.703125 14.835938 3.75 15.085938 3.890625 C 15.335938 4.03125 15.515625 4.234375 15.625 4.5 C 15.828125 4.917969 15.898438 5.359375 15.84375 5.820312 C 15.765625 6.679688 15.628906 7.527344 15.433594 8.363281 C 15.992188 9.691406 16.808594 10.835938 17.878906 11.800781 C 18.550781 11.695312 19.230469 11.648438 19.910156 11.667969 C 20.613281 11.785156 20.785156 12.175781 20.832031 12.410156 C 20.875 12.644531 20.824219 12.855469 20.683594 13.046875 C 20.519531 13.269531 20.300781 13.402344 20.027344 13.449219 C 19.132812 13.570312 18.316406 13.375 17.574219 12.863281 C 16.191406 13.054688 14.828125 13.316406 13.476562 13.652344 C 13.152344 14.246094 12.757812 14.789062 12.285156 15.273438 C 11.175781 16.355469 10.382812 16.59375 9.898438 16.59375 Z M 9.855469 15.578125 C 9.980469 15.578125 10.535156 15.578125 11.582031 14.5625 C 11.71875 14.429688 11.84375 14.289062 11.960938 14.140625 C 11.351562 14.316406 10.78125 14.578125 10.25 14.921875 C 9.847656 15.21875 9.808594 15.457031 9.855469 15.574219 Z M 15.039062 9.863281 C 14.78125 10.757812 14.460938 11.628906 14.085938 12.476562 C 14.921875 12.285156 15.777344 12.125 16.566406 11.996094 C 15.96875 11.347656 15.460938 10.632812 15.039062 9.859375 Z M 14.457031 4.78125 C 14.355469 4.84375 14.304688 4.9375 14.296875 5.058594 C 14.292969 5.300781 14.332031 5.535156 14.421875 5.761719 C 14.511719 6.050781 14.613281 6.359375 14.730469 6.6875 C 14.777344 6.367188 14.816406 6.050781 14.84375 5.75 C 14.882812 5.484375 14.847656 5.230469 14.742188 4.984375 C 14.6875 4.855469 14.59375 4.785156 14.457031 4.765625 Z M 14.457031 4.78125 " fill-opacity="1" fill-rule="nonzero"/><path fill="#dd0000" d="M 10.554688 24.730469 C 10.480469 24.75 10.40625 24.761719 10.328125 24.773438 C 10.226562 24.777344 10.125 24.777344 10.023438 24.773438 C 9.933594 24.78125 9.84375 24.78125 9.753906 24.773438 C 9.683594 24.761719 9.617188 24.734375 9.558594 24.691406 C 9.503906 24.648438 9.460938 24.59375 9.4375 24.527344 C 9.40625 24.4375 9.394531 24.34375 9.398438 24.246094 L 9.398438 21.132812 C 9.390625 21.046875 9.417969 20.976562 9.472656 20.914062 C 9.535156 20.855469 9.601562 20.816406 9.683594 20.789062 C 9.847656 20.734375 10.015625 20.695312 10.191406 20.679688 C 10.378906 20.652344 10.570312 20.640625 10.757812 20.636719 C 11.269531 20.605469 11.734375 20.734375 12.152344 21.03125 C 12.492188 21.300781 12.652344 21.652344 12.636719 22.085938 C 12.636719 22.289062 12.605469 22.484375 12.535156 22.671875 C 12.464844 22.84375 12.363281 22.996094 12.230469 23.125 C 12.078125 23.253906 11.910156 23.351562 11.71875 23.414062 C 11.488281 23.484375 11.25 23.519531 11.007812 23.515625 L 10.554688 23.515625 Z M 10.902344 22.609375 C 11.058594 22.621094 11.199219 22.578125 11.324219 22.484375 C 11.429688 22.375 11.480469 22.242188 11.480469 22.09375 C 11.480469 21.941406 11.429688 21.808594 11.324219 21.699219 C 11.191406 21.597656 11.039062 21.554688 10.871094 21.566406 L 10.554688 21.566406 L 10.554688 22.585938 Z M 10.902344 22.609375 " fill-opacity="1" fill-rule="nonzero"/><path fill="#dd0000" d="M 14.761719 24.863281 L 14.203125 24.863281 L 13.890625 24.8125 C 13.792969 24.792969 13.695312 24.765625 13.601562 24.730469 C 13.363281 24.660156 13.242188 24.496094 13.242188 24.246094 L 13.242188 21.132812 C 13.234375 21.046875 13.261719 20.976562 13.316406 20.914062 C 13.375 20.855469 13.445312 20.8125 13.527344 20.789062 C 13.722656 20.726562 13.921875 20.6875 14.125 20.667969 C 14.339844 20.667969 14.527344 20.636719 14.695312 20.636719 C 15.011719 20.636719 15.324219 20.679688 15.628906 20.765625 C 15.898438 20.84375 16.136719 20.972656 16.347656 21.152344 C 16.554688 21.335938 16.710938 21.554688 16.816406 21.8125 C 16.933594 22.113281 16.992188 22.425781 16.984375 22.746094 C 16.988281 23.066406 16.933594 23.375 16.820312 23.671875 C 16.714844 23.929688 16.558594 24.148438 16.351562 24.328125 C 16.148438 24.515625 15.914062 24.644531 15.652344 24.726562 C 15.363281 24.820312 15.066406 24.863281 14.761719 24.863281 Z M 14.390625 23.898438 L 14.566406 23.921875 L 14.765625 23.921875 C 14.90625 23.925781 15.042969 23.902344 15.179688 23.855469 C 15.300781 23.8125 15.410156 23.746094 15.503906 23.652344 C 15.601562 23.546875 15.671875 23.429688 15.71875 23.292969 C 15.765625 23.125 15.789062 22.957031 15.789062 22.785156 C 15.8125 22.449219 15.722656 22.152344 15.511719 21.886719 C 15.3125 21.675781 15.0625 21.574219 14.769531 21.589844 L 14.390625 21.589844 Z M 14.390625 23.898438 " fill-opacity="1" fill-rule="nonzero"/><path fill="#dd0000" d="M 20.457031 20.769531 C 20.492188 20.832031 20.523438 20.894531 20.542969 20.964844 C 20.5625 21.046875 20.578125 21.132812 20.578125 21.21875 C 20.589844 21.355469 20.550781 21.476562 20.464844 21.582031 C 20.382812 21.664062 20.285156 21.699219 20.171875 21.695312 L 18.78125 21.695312 L 18.78125 22.441406 L 20.230469 22.441406 C 20.273438 22.5 20.304688 22.5625 20.324219 22.632812 C 20.347656 22.714844 20.359375 22.800781 20.359375 22.886719 C 20.375 23.019531 20.335938 23.136719 20.246094 23.242188 C 20.167969 23.320312 20.070312 23.359375 19.957031 23.351562 L 18.796875 23.351562 L 18.796875 24.746094 C 18.722656 24.765625 18.648438 24.777344 18.570312 24.785156 C 18.46875 24.792969 18.367188 24.792969 18.265625 24.785156 C 18.175781 24.796875 18.085938 24.796875 17.996094 24.785156 C 17.925781 24.773438 17.859375 24.746094 17.800781 24.707031 C 17.746094 24.664062 17.707031 24.609375 17.679688 24.542969 C 17.652344 24.453125 17.640625 24.359375 17.644531 24.261719 L 17.644531 21.371094 C 17.632812 21.199219 17.6875 21.050781 17.8125 20.929688 C 17.933594 20.808594 18.082031 20.753906 18.253906 20.769531 Z M 20.457031 20.769531 " fill-opacity="1" fill-rule="nonzero"/></svg>