<svg xmlns="http://www.w3.org/2000/svg" xmlns:xlink="http://www.w3.org/1999/xlink" width="40" zoomAndPan="magnify" viewBox="0 0 30 30.000001" height="40" preserveAspectRatio="xMidYMid meet" version="1.0"><defs><clipPath id="9b4becc6fa"><path d="M 9.195312 8.710938 L 20.804688 8.710938 L 20.804688 20.324219 L 9.195312 20.324219 Z M 9.195312 8.710938 " clip-rule="nonzero"/></clipPath></defs><g clip-path="url(#9b4becc6fa)"><path fill="#273884" d="M 13.898438 8.730469 C 11.289062 8.757812 9.195312 10.898438 9.226562 13.507812 C 9.253906 16.121094 11.394531 18.214844 14.003906 18.183594 C 14.96875 18.175781 15.90625 17.867188 16.691406 17.308594 L 19.390625 20.007812 C 19.699219 20.3125 20.199219 20.3125 20.503906 20 C 20.804688 19.695312 20.804688 19.203125 20.503906 18.894531 L 17.804688 16.195312 C 19.316406 14.070312 18.820312 11.117188 16.691406 9.605469 C 15.875 9.027344 14.898438 8.71875 13.898438 8.730469 Z M 13.84375 9.546875 C 16 9.488281 17.796875 11.1875 17.855469 13.34375 C 17.855469 13.382812 17.855469 13.417969 17.855469 13.457031 C 17.859375 15.613281 16.109375 17.363281 13.953125 17.363281 C 11.796875 17.363281 10.046875 15.617188 10.046875 13.460938 C 10.046875 13.460938 10.046875 13.457031 10.046875 13.457031 C 10.042969 11.339844 11.726562 9.609375 13.84375 9.546875 Z M 13.84375 9.546875 " fill-opacity="1" fill-rule="nonzero"/></g><path fill="#273884" d="M 12.898438 10.5625 C 13.113281 10.484375 13.347656 10.59375 13.421875 10.808594 C 13.5 11.019531 13.390625 11.253906 13.179688 11.332031 C 12.285156 11.660156 11.691406 12.507812 11.691406 13.457031 C 11.691406 13.683594 11.507812 13.867188 11.28125 13.867188 C 11.054688 13.867188 10.871094 13.683594 10.871094 13.457031 C 10.871094 12.160156 11.679688 11.003906 12.898438 10.5625 Z M 12.898438 10.5625 " fill-opacity="1" fill-rule="nonzero"/></svg>